<svg width="612" height="494" viewBox="0 0 612 494" fill="none" xmlns="http://www.w3.org/2000/svg">
<rect y="1" width="612" height="493" fill="#D2D2D2"/>
<g filter="url(#filter0_d)">
<path d="M314 359.296H298.256V355.2H334.48V359.296H318.736V400H314V359.296Z" fill="white"/>
<path d="M314 359.296H316.5V356.796H314V359.296ZM298.256 359.296H295.756V361.796H298.256V359.296ZM298.256 355.2V352.7H295.756V355.2H298.256ZM334.48 355.2H336.98V352.7H334.48V355.2ZM334.48 359.296V361.796H336.98V359.296H334.48ZM318.736 359.296V356.796H316.236V359.296H318.736ZM318.736 400V402.5H321.236V400H318.736ZM314 400H311.5V402.5H314V400ZM314 356.796H298.256V361.796H314V356.796ZM300.756 359.296V355.2H295.756V359.296H300.756ZM298.256 357.7H334.48V352.7H298.256V357.7ZM331.98 355.2V359.296H336.98V355.2H331.98ZM334.48 356.796H318.736V361.796H334.48V356.796ZM316.236 359.296V400H321.236V359.296H316.236ZM318.736 397.5H314V402.5H318.736V397.5ZM316.5 400V359.296H311.5V400H316.5Z" fill="white"/>
</g>
<g filter="url(#filter1_d)">
<path d="M337.518 345.822L310.931 381.865L300.454 372.192L337.518 345.822Z" fill="#FDE400"/>
</g>
<g filter="url(#filter2_d)">
<path d="M289.967 410.736L315.836 374.193L326.473 383.707L289.967 410.736Z" fill="#FDE400"/>
</g>
<g filter="url(#filter3_d)">
<path d="M357 359.296H341.256V355.2H377.48V359.296H361.736V400H357V359.296Z" fill="white"/>
<path d="M357 359.296H359.5V356.796H357V359.296ZM341.256 359.296H338.756V361.796H341.256V359.296ZM341.256 355.2V352.7H338.756V355.2H341.256ZM377.48 355.2H379.98V352.7H377.48V355.2ZM377.48 359.296V361.796H379.98V359.296H377.48ZM361.736 359.296V356.796H359.236V359.296H361.736ZM361.736 400V402.5H364.236V400H361.736ZM357 400H354.5V402.5H357V400ZM357 356.796H341.256V361.796H357V356.796ZM343.756 359.296V355.2H338.756V359.296H343.756ZM341.256 357.7H377.48V352.7H341.256V357.7ZM374.98 355.2V359.296H379.98V355.2H374.98ZM377.48 356.796H361.736V361.796H377.48V356.796ZM359.236 359.296V400H364.236V359.296H359.236ZM361.736 397.5H357V402.5H361.736V397.5ZM359.5 400V359.296H354.5V400H359.5Z" fill="white"/>
</g>
<g filter="url(#filter4_d)">
<path d="M380.518 345.822L353.931 381.865L343.454 372.192L380.518 345.822Z" fill="#FDE400"/>
</g>
<g filter="url(#filter5_d)">
<path d="M332.967 410.736L358.836 374.193L369.473 383.707L332.967 410.736Z" fill="#FDE400"/>
</g>
<g filter="url(#filter6_d)">
<path d="M183.032 359.296V376.896H206.2V380.992H183.032V400H178.296V355.2H209.016V359.296H183.032ZM244.767 388.032H219.807L214.431 400H209.503L229.983 355.2H234.655L255.135 400H250.143L244.767 388.032ZM243.039 384.192L232.287 360.128L221.535 384.192H243.039ZM274.898 400.384C271.57 400.384 268.37 399.851 265.298 398.784C262.269 397.717 259.922 396.309 258.258 394.56L260.114 390.912C261.735 392.533 263.89 393.856 266.578 394.88C269.266 395.861 272.039 396.352 274.898 396.352C278.909 396.352 281.917 395.627 283.922 394.176C285.927 392.683 286.93 390.763 286.93 388.416C286.93 386.624 286.375 385.195 285.266 384.128C284.199 383.061 282.877 382.251 281.298 381.696C279.719 381.099 277.522 380.459 274.706 379.776C271.335 378.923 268.647 378.112 266.642 377.344C264.637 376.533 262.909 375.317 261.458 373.696C260.05 372.075 259.346 369.877 259.346 367.104C259.346 364.843 259.943 362.795 261.138 360.96C262.333 359.083 264.167 357.589 266.642 356.48C269.117 355.371 272.189 354.816 275.858 354.816C278.418 354.816 280.914 355.179 283.346 355.904C285.821 356.587 287.954 357.547 289.746 358.784L288.146 362.56C286.269 361.323 284.263 360.405 282.13 359.808C279.997 359.168 277.906 358.848 275.858 358.848C271.933 358.848 268.967 359.616 266.962 361.152C264.999 362.645 264.018 364.587 264.018 366.976C264.018 368.768 264.551 370.219 265.618 371.328C266.727 372.395 268.093 373.227 269.714 373.824C271.378 374.379 273.597 374.997 276.37 375.68C279.655 376.491 282.301 377.301 284.306 378.112C286.354 378.88 288.082 380.075 289.49 381.696C290.898 383.275 291.602 385.429 291.602 388.16C291.602 390.421 290.983 392.491 289.746 394.368C288.551 396.203 286.695 397.675 284.178 398.784C281.661 399.851 278.567 400.384 274.898 400.384Z" fill="white"/>
<path d="M183.032 359.296V356.796H180.532V359.296H183.032ZM183.032 376.896H180.532V379.396H183.032V376.896ZM206.2 376.896H208.7V374.396H206.2V376.896ZM206.2 380.992V383.492H208.7V380.992H206.2ZM183.032 380.992V378.492H180.532V380.992H183.032ZM183.032 400V402.5H185.532V400H183.032ZM178.296 400H175.796V402.5H178.296V400ZM178.296 355.2V352.7H175.796V355.2H178.296ZM209.016 355.2H211.516V352.7H209.016V355.2ZM209.016 359.296V361.796H211.516V359.296H209.016ZM180.532 359.296V376.896H185.532V359.296H180.532ZM183.032 379.396H206.2V374.396H183.032V379.396ZM203.7 376.896V380.992H208.7V376.896H203.7ZM206.2 378.492H183.032V383.492H206.2V378.492ZM180.532 380.992V400H185.532V380.992H180.532ZM183.032 397.5H178.296V402.5H183.032V397.5ZM180.796 400V355.2H175.796V400H180.796ZM178.296 357.7H209.016V352.7H178.296V357.7ZM206.516 355.2V359.296H211.516V355.2H206.516ZM209.016 356.796H183.032V361.796H209.016V356.796ZM244.767 388.032L247.047 387.008L246.385 385.532H244.767V388.032ZM219.807 388.032V385.532H218.189L217.527 387.008L219.807 388.032ZM214.431 400V402.5H216.049L216.711 401.024L214.431 400ZM209.503 400L207.229 398.961L205.611 402.5H209.503V400ZM229.983 355.2V352.7H228.377L227.709 354.161L229.983 355.2ZM234.655 355.2L236.929 354.161L236.261 352.7H234.655V355.2ZM255.135 400V402.5H259.027L257.409 398.961L255.135 400ZM250.143 400L247.863 401.024L248.525 402.5H250.143V400ZM243.039 384.192V386.692H246.894L245.322 383.172L243.039 384.192ZM232.287 360.128L234.57 359.108L232.287 354L230.004 359.108L232.287 360.128ZM221.535 384.192L219.252 383.172L217.68 386.692H221.535V384.192ZM244.767 385.532H219.807V390.532H244.767V385.532ZM217.527 387.008L212.151 398.976L216.711 401.024L222.087 389.056L217.527 387.008ZM214.431 397.5H209.503V402.5H214.431V397.5ZM211.777 401.039L232.257 356.239L227.709 354.161L207.229 398.961L211.777 401.039ZM229.983 357.7H234.655V352.7H229.983V357.7ZM232.381 356.239L252.861 401.039L257.409 398.961L236.929 354.161L232.381 356.239ZM255.135 397.5H250.143V402.5H255.135V397.5ZM252.423 398.976L247.047 387.008L242.487 389.056L247.863 401.024L252.423 398.976ZM245.322 383.172L234.57 359.108L230.004 361.148L240.756 385.212L245.322 383.172ZM230.004 359.108L219.252 383.172L223.818 385.212L234.57 361.148L230.004 359.108ZM221.535 386.692H243.039V381.692H221.535V386.692ZM265.298 398.784L264.468 401.142L264.478 401.146L265.298 398.784ZM258.258 394.56L256.03 393.426L255.228 395.002L256.447 396.283L258.258 394.56ZM260.114 390.912L261.882 389.144L259.447 386.71L257.886 389.778L260.114 390.912ZM266.578 394.88L265.688 397.216L265.704 397.222L265.721 397.228L266.578 394.88ZM283.922 394.176L285.387 396.202L285.401 396.191L285.415 396.181L283.922 394.176ZM285.266 384.128L283.498 385.896L283.516 385.913L283.533 385.93L285.266 384.128ZM281.298 381.696L280.413 384.034L280.441 384.045L280.469 384.055L281.298 381.696ZM274.706 379.776L274.092 382.2L274.105 382.203L274.117 382.206L274.706 379.776ZM266.642 377.344L265.705 379.662L265.726 379.67L265.748 379.679L266.642 377.344ZM261.458 373.696L259.57 375.335L259.583 375.349L259.595 375.363L261.458 373.696ZM261.138 360.96L263.233 362.324L263.24 362.313L263.247 362.302L261.138 360.96ZM266.642 356.48L267.665 358.761L267.665 358.761L266.642 356.48ZM283.346 355.904L282.631 358.3L282.656 358.307L282.681 358.314L283.346 355.904ZM289.746 358.784L292.048 359.759L292.843 357.884L291.166 356.727L289.746 358.784ZM288.146 362.56L286.77 364.647L289.277 366.299L290.448 363.535L288.146 362.56ZM282.13 359.808L281.412 362.203L281.434 362.209L281.456 362.215L282.13 359.808ZM266.962 361.152L268.476 363.142L268.482 363.137L266.962 361.152ZM265.618 371.328L263.816 373.061L263.85 373.096L263.885 373.13L265.618 371.328ZM269.714 373.824L268.85 376.17L268.886 376.183L268.923 376.196L269.714 373.824ZM276.37 375.68L276.969 373.253L276.968 373.252L276.37 375.68ZM284.306 378.112L283.369 380.43L283.398 380.442L283.428 380.453L284.306 378.112ZM289.49 381.696L287.602 383.335L287.613 383.348L287.624 383.36L289.49 381.696ZM289.746 394.368L287.659 392.992L287.651 393.004L289.746 394.368ZM284.178 398.784L285.153 401.086L285.17 401.079L285.186 401.072L284.178 398.784ZM274.898 397.884C271.843 397.884 268.92 397.395 266.118 396.422L264.478 401.146C267.82 402.306 271.297 402.884 274.898 402.884V397.884ZM266.128 396.426C263.354 395.449 261.386 394.221 260.069 392.837L256.447 396.283C258.458 398.397 261.184 399.986 264.468 401.142L266.128 396.426ZM260.486 395.694L262.342 392.046L257.886 389.778L256.03 393.426L260.486 395.694ZM258.346 392.68C260.272 394.605 262.752 396.098 265.688 397.216L267.468 392.544C265.028 391.614 263.199 390.461 261.882 389.144L258.346 392.68ZM265.721 397.228C268.683 398.31 271.747 398.852 274.898 398.852V393.852C272.332 393.852 269.849 393.413 267.435 392.532L265.721 397.228ZM274.898 398.852C279.135 398.852 282.764 398.099 285.387 396.202L282.457 392.15C281.069 393.154 278.682 393.852 274.898 393.852V398.852ZM285.415 396.181C288.006 394.252 289.43 391.611 289.43 388.416H284.43C284.43 389.914 283.849 391.113 282.429 392.171L285.415 396.181ZM289.43 388.416C289.43 386.066 288.68 383.942 286.999 382.326L283.533 385.93C284.071 386.447 284.43 387.182 284.43 388.416H289.43ZM287.034 382.36C285.675 381.001 284.02 380.002 282.127 379.337L280.469 384.055C281.734 384.499 282.724 385.122 283.498 385.896L287.034 382.36ZM282.183 379.358C280.463 378.707 278.151 378.039 275.295 377.346L274.117 382.206C276.893 382.879 278.976 383.49 280.413 384.034L282.183 379.358ZM275.32 377.352C271.994 376.51 269.411 375.728 267.536 375.009L265.748 379.679C267.883 380.496 270.677 381.335 274.092 382.2L275.32 377.352ZM267.579 375.026C265.93 374.36 264.518 373.367 263.321 372.029L259.595 375.363C261.299 377.267 263.343 378.707 265.705 379.662L267.579 375.026ZM263.346 372.057C262.436 371.01 261.846 369.455 261.846 367.104H256.846C256.846 370.3 257.664 373.14 259.57 375.335L263.346 372.057ZM261.846 367.104C261.846 365.31 262.312 363.739 263.233 362.324L259.043 359.596C257.575 361.85 256.846 364.375 256.846 367.104H261.846ZM263.247 362.302C264.127 360.92 265.538 359.715 267.665 358.761L265.619 354.199C262.797 355.464 260.539 357.245 259.029 359.618L263.247 362.302ZM267.665 358.761C269.725 357.837 272.424 357.316 275.858 357.316V352.316C271.954 352.316 268.508 352.904 265.619 354.199L267.665 358.761ZM275.858 357.316C278.178 357.316 280.433 357.644 282.631 358.3L284.061 353.508C281.395 352.713 278.658 352.316 275.858 352.316V357.316ZM282.681 358.314C284.933 358.935 286.801 359.789 288.326 360.841L291.166 356.727C289.107 355.305 286.708 354.238 284.011 353.494L282.681 358.314ZM287.444 357.809L285.844 361.585L290.448 363.535L292.048 359.759L287.444 357.809ZM289.522 360.473C287.432 359.095 285.19 358.069 282.804 357.401L281.456 362.215C283.336 362.742 285.106 363.55 286.77 364.647L289.522 360.473ZM282.848 357.413C280.502 356.71 278.17 356.348 275.858 356.348V361.348C277.642 361.348 279.491 361.626 281.412 362.203L282.848 357.413ZM275.858 356.348C271.669 356.348 268.066 357.157 265.442 359.167L268.482 363.137C269.869 362.075 272.196 361.348 275.858 361.348V356.348ZM265.448 359.162C262.888 361.111 261.518 363.777 261.518 366.976H266.518C266.518 365.396 267.111 364.18 268.476 363.142L265.448 359.162ZM261.518 366.976C261.518 369.3 262.228 371.41 263.816 373.061L267.42 369.595C266.874 369.028 266.518 368.236 266.518 366.976H261.518ZM263.885 373.13C265.272 374.464 266.944 375.468 268.85 376.17L270.578 371.478C269.241 370.985 268.182 370.326 267.351 369.526L263.885 373.13ZM268.923 376.196C270.678 376.78 272.969 377.417 275.772 378.108L276.968 373.252C274.224 372.577 272.078 371.977 270.505 371.452L268.923 376.196ZM275.771 378.107C278.998 378.903 281.517 379.681 283.369 380.43L285.243 375.794C283.084 374.922 280.313 374.078 276.969 373.253L275.771 378.107ZM283.428 380.453C285.094 381.077 286.473 382.034 287.602 383.335L291.378 380.057C289.691 378.115 287.614 376.683 285.184 375.771L283.428 380.453ZM287.624 383.36C288.516 384.36 289.102 385.86 289.102 388.16H294.102C294.102 384.999 293.28 382.189 291.356 380.032L287.624 383.36ZM289.102 388.16C289.102 389.935 288.625 391.526 287.659 392.992L291.833 395.744C293.342 393.456 294.102 390.907 294.102 388.16H289.102ZM287.651 393.004C286.782 394.339 285.357 395.533 283.17 396.496L285.186 401.072C288.034 399.817 290.321 398.067 291.841 395.732L287.651 393.004ZM283.203 396.482C281.08 397.382 278.34 397.884 274.898 397.884V402.884C278.794 402.884 282.241 402.32 285.153 401.086L283.203 396.482Z" fill="white"/>
</g>
<g filter="url(#filter7_d)">
<path d="M408.656 384.512V400H403.984V384.512L386.064 355.2H391.12L406.48 380.352L421.84 355.2H426.576L408.656 384.512Z" fill="white"/>
<path d="M408.656 384.512L406.523 383.208L406.156 383.808V384.512H408.656ZM408.656 400V402.5H411.156V400H408.656ZM403.984 400H401.484V402.5H403.984V400ZM403.984 384.512H406.484V383.808L406.117 383.208L403.984 384.512ZM386.064 355.2V352.7H381.605L383.931 356.504L386.064 355.2ZM391.12 355.2L393.254 353.897L392.523 352.7H391.12V355.2ZM406.48 380.352L404.346 381.655L406.48 385.149L408.614 381.655L406.48 380.352ZM421.84 355.2V352.7H420.437L419.706 353.897L421.84 355.2ZM426.576 355.2L428.709 356.504L431.035 352.7H426.576V355.2ZM406.156 384.512V400H411.156V384.512H406.156ZM408.656 397.5H403.984V402.5H408.656V397.5ZM406.484 400V384.512H401.484V400H406.484ZM406.117 383.208L388.197 353.896L383.931 356.504L401.851 385.816L406.117 383.208ZM386.064 357.7H391.12V352.7H386.064V357.7ZM388.986 356.503L404.346 381.655L408.614 379.049L393.254 353.897L388.986 356.503ZM408.614 381.655L423.974 356.503L419.706 353.897L404.346 379.049L408.614 381.655ZM421.84 357.7H426.576V352.7H421.84V357.7ZM424.443 353.896L406.523 383.208L410.789 385.816L428.709 356.504L424.443 353.896Z" fill="white"/>
</g>
<g filter="url(#filter8_d)">
<path d="M287.515 95.832H216.667V77.4H379.675V95.832H308.827V279H287.515V95.832Z" fill="white"/>
<path d="M287.515 95.832H290.015V93.332H287.515V95.832ZM216.667 95.832H214.167V98.332H216.667V95.832ZM216.667 77.4V74.9H214.167V77.4H216.667ZM379.675 77.4H382.175V74.9H379.675V77.4ZM379.675 95.832V98.332H382.175V95.832H379.675ZM308.827 95.832V93.332H306.327V95.832H308.827ZM308.827 279V281.5H311.327V279H308.827ZM287.515 279H285.015V281.5H287.515V279ZM287.515 93.332H216.667V98.332H287.515V93.332ZM219.167 95.832V77.4H214.167V95.832H219.167ZM216.667 79.9H379.675V74.9H216.667V79.9ZM377.175 77.4V95.832H382.175V77.4H377.175ZM379.675 93.332H308.827V98.332H379.675V93.332ZM306.327 95.832V279H311.327V95.832H306.327ZM308.827 276.5H287.515V281.5H308.827V276.5ZM290.015 279V95.832H285.015V279H290.015Z" fill="white"/>
</g>
<g filter="url(#filter9_d)">
<path d="M379.183 68.2746L289.12 192.889L257.315 162.291L379.183 68.2746Z" fill="#FDE400"/>
</g>
<g filter="url(#filter10_d)">
<path d="M218.036 292.657L305.895 166.488L338.229 196.53L218.036 292.657Z" fill="#FDE400"/>
</g>
<defs>
<filter id="filter0_d" x="291.756" y="352.7" width="49.224" height="57.8" filterUnits="userSpaceOnUse" color-interpolation-filters="sRGB">
<feFlood flood-opacity="0" result="BackgroundImageFix"/>
<feColorMatrix in="SourceAlpha" type="matrix" values="0 0 0 0 0 0 0 0 0 0 0 0 0 0 0 0 0 0 127 0"/>
<feOffset dy="4"/>
<feGaussianBlur stdDeviation="2"/>
<feColorMatrix type="matrix" values="0 0 0 0 0 0 0 0 0 0 0 0 0 0 0 0 0 0 0.12 0"/>
<feBlend mode="normal" in2="BackgroundImageFix" result="effect1_dropShadow"/>
<feBlend mode="normal" in="SourceGraphic" in2="effect1_dropShadow" result="shape"/>
</filter>
<filter id="filter1_d" x="268.454" y="324.822" width="85.0642" height="84.0423" filterUnits="userSpaceOnUse" color-interpolation-filters="sRGB">
<feFlood flood-opacity="0" result="BackgroundImageFix"/>
<feColorMatrix in="SourceAlpha" type="matrix" values="0 0 0 0 0 0 0 0 0 0 0 0 0 0 0 0 0 0 127 0"/>
<feOffset dx="-8" dy="3"/>
<feGaussianBlur stdDeviation="12"/>
<feColorMatrix type="matrix" values="0 0 0 0 1 0 0 0 0 0.48 0 0 0 0 0 0 0 0 0.2 0"/>
<feBlend mode="normal" in2="BackgroundImageFix" result="effect1_dropShadow"/>
<feBlend mode="normal" in="SourceGraphic" in2="effect1_dropShadow" result="shape"/>
</filter>
<filter id="filter2_d" x="269.967" y="369.193" width="84.5053" height="84.5429" filterUnits="userSpaceOnUse" color-interpolation-filters="sRGB">
<feFlood flood-opacity="0" result="BackgroundImageFix"/>
<feColorMatrix in="SourceAlpha" type="matrix" values="0 0 0 0 0 0 0 0 0 0 0 0 0 0 0 0 0 0 127 0"/>
<feOffset dx="4" dy="19"/>
<feGaussianBlur stdDeviation="12"/>
<feColorMatrix type="matrix" values="0 0 0 0 1 0 0 0 0 0.48 0 0 0 0 0 0 0 0 0.2 0"/>
<feBlend mode="normal" in2="BackgroundImageFix" result="effect1_dropShadow"/>
<feBlend mode="normal" in="SourceGraphic" in2="effect1_dropShadow" result="shape"/>
</filter>
<filter id="filter3_d" x="334.756" y="352.7" width="49.224" height="57.8" filterUnits="userSpaceOnUse" color-interpolation-filters="sRGB">
<feFlood flood-opacity="0" result="BackgroundImageFix"/>
<feColorMatrix in="SourceAlpha" type="matrix" values="0 0 0 0 0 0 0 0 0 0 0 0 0 0 0 0 0 0 127 0"/>
<feOffset dy="4"/>
<feGaussianBlur stdDeviation="2"/>
<feColorMatrix type="matrix" values="0 0 0 0 0 0 0 0 0 0 0 0 0 0 0 0 0 0 0.12 0"/>
<feBlend mode="normal" in2="BackgroundImageFix" result="effect1_dropShadow"/>
<feBlend mode="normal" in="SourceGraphic" in2="effect1_dropShadow" result="shape"/>
</filter>
<filter id="filter4_d" x="311.454" y="324.822" width="85.0642" height="84.0423" filterUnits="userSpaceOnUse" color-interpolation-filters="sRGB">
<feFlood flood-opacity="0" result="BackgroundImageFix"/>
<feColorMatrix in="SourceAlpha" type="matrix" values="0 0 0 0 0 0 0 0 0 0 0 0 0 0 0 0 0 0 127 0"/>
<feOffset dx="-8" dy="3"/>
<feGaussianBlur stdDeviation="12"/>
<feColorMatrix type="matrix" values="0 0 0 0 1 0 0 0 0 0.48 0 0 0 0 0 0 0 0 0.2 0"/>
<feBlend mode="normal" in2="BackgroundImageFix" result="effect1_dropShadow"/>
<feBlend mode="normal" in="SourceGraphic" in2="effect1_dropShadow" result="shape"/>
</filter>
<filter id="filter5_d" x="312.967" y="369.193" width="84.5053" height="84.5429" filterUnits="userSpaceOnUse" color-interpolation-filters="sRGB">
<feFlood flood-opacity="0" result="BackgroundImageFix"/>
<feColorMatrix in="SourceAlpha" type="matrix" values="0 0 0 0 0 0 0 0 0 0 0 0 0 0 0 0 0 0 127 0"/>
<feOffset dx="4" dy="19"/>
<feGaussianBlur stdDeviation="12"/>
<feColorMatrix type="matrix" values="0 0 0 0 1 0 0 0 0 0.48 0 0 0 0 0 0 0 0 0.2 0"/>
<feBlend mode="normal" in2="BackgroundImageFix" result="effect1_dropShadow"/>
<feBlend mode="normal" in="SourceGraphic" in2="effect1_dropShadow" result="shape"/>
</filter>
<filter id="filter6_d" x="171.796" y="352.316" width="126.306" height="58.568" filterUnits="userSpaceOnUse" color-interpolation-filters="sRGB">
<feFlood flood-opacity="0" result="BackgroundImageFix"/>
<feColorMatrix in="SourceAlpha" type="matrix" values="0 0 0 0 0 0 0 0 0 0 0 0 0 0 0 0 0 0 127 0"/>
<feOffset dy="4"/>
<feGaussianBlur stdDeviation="2"/>
<feColorMatrix type="matrix" values="0 0 0 0 0 0 0 0 0 0 0 0 0 0 0 0 0 0 0.25 0"/>
<feBlend mode="normal" in2="BackgroundImageFix" result="effect1_dropShadow"/>
<feBlend mode="normal" in="SourceGraphic" in2="effect1_dropShadow" result="shape"/>
</filter>
<filter id="filter7_d" x="377.605" y="352.7" width="57.4291" height="57.8" filterUnits="userSpaceOnUse" color-interpolation-filters="sRGB">
<feFlood flood-opacity="0" result="BackgroundImageFix"/>
<feColorMatrix in="SourceAlpha" type="matrix" values="0 0 0 0 0 0 0 0 0 0 0 0 0 0 0 0 0 0 127 0"/>
<feOffset dy="4"/>
<feGaussianBlur stdDeviation="2"/>
<feColorMatrix type="matrix" values="0 0 0 0 0 0 0 0 0 0 0 0 0 0 0 0 0 0 0.25 0"/>
<feBlend mode="normal" in2="BackgroundImageFix" result="effect1_dropShadow"/>
<feBlend mode="normal" in="SourceGraphic" in2="effect1_dropShadow" result="shape"/>
</filter>
<filter id="filter8_d" x="210.167" y="74.9" width="176.008" height="214.6" filterUnits="userSpaceOnUse" color-interpolation-filters="sRGB">
<feFlood flood-opacity="0" result="BackgroundImageFix"/>
<feColorMatrix in="SourceAlpha" type="matrix" values="0 0 0 0 0 0 0 0 0 0 0 0 0 0 0 0 0 0 127 0"/>
<feOffset dy="4"/>
<feGaussianBlur stdDeviation="2"/>
<feColorMatrix type="matrix" values="0 0 0 0 0 0 0 0 0 0 0 0 0 0 0 0 0 0 0.12 0"/>
<feBlend mode="normal" in2="BackgroundImageFix" result="effect1_dropShadow"/>
<feBlend mode="normal" in="SourceGraphic" in2="effect1_dropShadow" result="shape"/>
</filter>
<filter id="filter9_d" x="225.315" y="47.2746" width="169.867" height="172.614" filterUnits="userSpaceOnUse" color-interpolation-filters="sRGB">
<feFlood flood-opacity="0" result="BackgroundImageFix"/>
<feColorMatrix in="SourceAlpha" type="matrix" values="0 0 0 0 0 0 0 0 0 0 0 0 0 0 0 0 0 0 127 0"/>
<feOffset dx="-8" dy="3"/>
<feGaussianBlur stdDeviation="12"/>
<feColorMatrix type="matrix" values="0 0 0 0 1 0 0 0 0 0.48 0 0 0 0 0 0 0 0 0.7 0"/>
<feBlend mode="normal" in2="BackgroundImageFix" result="effect1_dropShadow"/>
<feBlend mode="normal" in="SourceGraphic" in2="effect1_dropShadow" result="shape"/>
</filter>
<filter id="filter10_d" x="198.036" y="161.488" width="168.193" height="174.17" filterUnits="userSpaceOnUse" color-interpolation-filters="sRGB">
<feFlood flood-opacity="0" result="BackgroundImageFix"/>
<feColorMatrix in="SourceAlpha" type="matrix" values="0 0 0 0 0 0 0 0 0 0 0 0 0 0 0 0 0 0 127 0"/>
<feOffset dx="4" dy="19"/>
<feGaussianBlur stdDeviation="12"/>
<feColorMatrix type="matrix" values="0 0 0 0 1 0 0 0 0 0.48 0 0 0 0 0 0 0 0 0.7 0"/>
<feBlend mode="normal" in2="BackgroundImageFix" result="effect1_dropShadow"/>
<feBlend mode="normal" in="SourceGraphic" in2="effect1_dropShadow" result="shape"/>
</filter>
</defs>
</svg>
