<svg width="265" height="132" viewBox="0 0 265 132" fill="none" xmlns="http://www.w3.org/2000/svg">
<g filter="url(#filter0_d)">
<path d="M143 35.296H127.256V31.2H163.48V35.296H147.736V76H143V35.296Z" fill="white"/>
<path d="M143 35.296H145.5V32.796H143V35.296ZM127.256 35.296H124.756V37.796H127.256V35.296ZM127.256 31.2V28.7H124.756V31.2H127.256ZM163.48 31.2H165.98V28.7H163.48V31.2ZM163.48 35.296V37.796H165.98V35.296H163.48ZM147.736 35.296V32.796H145.236V35.296H147.736ZM147.736 76V78.5H150.236V76H147.736ZM143 76H140.5V78.5H143V76ZM143 32.796H127.256V37.796H143V32.796ZM129.756 35.296V31.2H124.756V35.296H129.756ZM127.256 33.7H163.48V28.7H127.256V33.7ZM160.98 31.2V35.296H165.98V31.2H160.98ZM163.48 32.796H147.736V37.796H163.48V32.796ZM145.236 35.296V76H150.236V35.296H145.236ZM147.736 73.5H143V78.5H147.736V73.5ZM145.5 76V35.296H140.5V76H145.5Z" fill="white"/>
</g>
<g filter="url(#filter1_d)">
<path d="M166.518 21.8223L139.931 57.8646L129.454 48.1923L166.518 21.8223Z" fill="#FDE400"/>
</g>
<g filter="url(#filter2_d)">
<path d="M118.967 86.7361L144.836 50.1932L155.473 59.7068L118.967 86.7361Z" fill="#FDE400"/>
</g>
<g filter="url(#filter3_d)">
<path d="M186 35.296H170.256V31.2H206.48V35.296H190.736V76H186V35.296Z" fill="white"/>
<path d="M186 35.296H188.5V32.796H186V35.296ZM170.256 35.296H167.756V37.796H170.256V35.296ZM170.256 31.2V28.7H167.756V31.2H170.256ZM206.48 31.2H208.98V28.7H206.48V31.2ZM206.48 35.296V37.796H208.98V35.296H206.48ZM190.736 35.296V32.796H188.236V35.296H190.736ZM190.736 76V78.5H193.236V76H190.736ZM186 76H183.5V78.5H186V76ZM186 32.796H170.256V37.796H186V32.796ZM172.756 35.296V31.2H167.756V35.296H172.756ZM170.256 33.7H206.48V28.7H170.256V33.7ZM203.98 31.2V35.296H208.98V31.2H203.98ZM206.48 32.796H190.736V37.796H206.48V32.796ZM188.236 35.296V76H193.236V35.296H188.236ZM190.736 73.5H186V78.5H190.736V73.5ZM188.5 76V35.296H183.5V76H188.5Z" fill="white"/>
</g>
<g filter="url(#filter4_d)">
<path d="M209.518 21.8223L182.931 57.8646L172.454 48.1923L209.518 21.8223Z" fill="#FDE400"/>
</g>
<g filter="url(#filter5_d)">
<path d="M161.967 86.7361L187.836 50.1932L198.473 59.7068L161.967 86.7361Z" fill="#FDE400"/>
</g>
<g filter="url(#filter6_d)">
<path d="M12.032 35.296V52.896H35.2V56.992H12.032V76H7.296V31.2H38.016V35.296H12.032ZM73.767 64.032H48.807L43.431 76H38.503L58.983 31.2H63.655L84.135 76H79.143L73.767 64.032ZM72.039 60.192L61.287 36.128L50.535 60.192H72.039ZM103.898 76.384C100.57 76.384 97.37 75.8507 94.298 74.784C91.2687 73.7173 88.922 72.3093 87.258 70.56L89.114 66.912C90.7353 68.5333 92.89 69.856 95.578 70.88C98.266 71.8613 101.039 72.352 103.898 72.352C107.909 72.352 110.917 71.6267 112.922 70.176C114.927 68.6827 115.93 66.7627 115.93 64.416C115.93 62.624 115.375 61.1947 114.266 60.128C113.199 59.0613 111.877 58.2507 110.298 57.696C108.719 57.0987 106.522 56.4587 103.706 55.776C100.335 54.9227 97.6473 54.112 95.642 53.344C93.6367 52.5333 91.9087 51.3173 90.458 49.696C89.05 48.0747 88.346 45.8773 88.346 43.104C88.346 40.8427 88.9433 38.7947 90.138 36.96C91.3327 35.0827 93.1673 33.5893 95.642 32.48C98.1167 31.3707 101.189 30.816 104.858 30.816C107.418 30.816 109.914 31.1787 112.346 31.904C114.821 32.5867 116.954 33.5467 118.746 34.784L117.146 38.56C115.269 37.3227 113.263 36.4053 111.13 35.808C108.997 35.168 106.906 34.848 104.858 34.848C100.933 34.848 97.9673 35.616 95.962 37.152C93.9993 38.6453 93.018 40.5867 93.018 42.976C93.018 44.768 93.5513 46.2187 94.618 47.328C95.7273 48.3947 97.0927 49.2267 98.714 49.824C100.378 50.3787 102.597 50.9973 105.37 51.68C108.655 52.4907 111.301 53.3013 113.306 54.112C115.354 54.88 117.082 56.0747 118.49 57.696C119.898 59.2747 120.602 61.4293 120.602 64.16C120.602 66.4213 119.983 68.4907 118.746 70.368C117.551 72.2027 115.695 73.6747 113.178 74.784C110.661 75.8507 107.567 76.384 103.898 76.384Z" fill="white"/>
<path d="M12.032 35.296V32.796H9.532V35.296H12.032ZM12.032 52.896H9.532V55.396H12.032V52.896ZM35.2 52.896H37.7V50.396H35.2V52.896ZM35.2 56.992V59.492H37.7V56.992H35.2ZM12.032 56.992V54.492H9.532V56.992H12.032ZM12.032 76V78.5H14.532V76H12.032ZM7.296 76H4.796V78.5H7.296V76ZM7.296 31.2V28.7H4.796V31.2H7.296ZM38.016 31.2H40.516V28.7H38.016V31.2ZM38.016 35.296V37.796H40.516V35.296H38.016ZM9.532 35.296V52.896H14.532V35.296H9.532ZM12.032 55.396H35.2V50.396H12.032V55.396ZM32.7 52.896V56.992H37.7V52.896H32.7ZM35.2 54.492H12.032V59.492H35.2V54.492ZM9.532 56.992V76H14.532V56.992H9.532ZM12.032 73.5H7.296V78.5H12.032V73.5ZM9.796 76V31.2H4.796V76H9.796ZM7.296 33.7H38.016V28.7H7.296V33.7ZM35.516 31.2V35.296H40.516V31.2H35.516ZM38.016 32.796H12.032V37.796H38.016V32.796ZM73.767 64.032L76.0475 63.0076L75.3846 61.532H73.767V64.032ZM48.807 64.032V61.532H47.1894L46.5265 63.0076L48.807 64.032ZM43.431 76V78.5H45.0486L45.7115 77.0244L43.431 76ZM38.503 76L36.2293 74.9606L34.6113 78.5H38.503V76ZM58.983 31.2V28.7H57.377L56.7093 30.1606L58.983 31.2ZM63.655 31.2L65.9287 30.1606L65.261 28.7H63.655V31.2ZM84.135 76V78.5H88.0267L86.4087 74.9606L84.135 76ZM79.143 76L76.8625 77.0244L77.5254 78.5H79.143V76ZM72.039 60.192V62.692H75.8942L74.3215 59.1721L72.039 60.192ZM61.287 36.128L63.5695 35.1081L61.287 29.9996L59.0045 35.1081L61.287 36.128ZM50.535 60.192L48.2525 59.1721L46.6798 62.692H50.535V60.192ZM73.767 61.532H48.807V66.532H73.767V61.532ZM46.5265 63.0076L41.1505 74.9756L45.7115 77.0244L51.0875 65.0564L46.5265 63.0076ZM43.431 73.5H38.503V78.5H43.431V73.5ZM40.7767 77.0394L61.2567 32.2394L56.7093 30.1606L36.2293 74.9606L40.7767 77.0394ZM58.983 33.7H63.655V28.7H58.983V33.7ZM61.3813 32.2394L81.8613 77.0394L86.4087 74.9606L65.9287 30.1606L61.3813 32.2394ZM84.135 73.5H79.143V78.5H84.135V73.5ZM81.4235 74.9756L76.0475 63.0076L71.4865 65.0564L76.8625 77.0244L81.4235 74.9756ZM74.3215 59.1721L63.5695 35.1081L59.0045 37.1478L69.7565 61.2118L74.3215 59.1721ZM59.0045 35.1081L48.2525 59.1721L52.8175 61.2118L63.5695 37.1478L59.0045 35.1081ZM50.535 62.692H72.039V57.692H50.535V62.692ZM94.298 74.784L93.4677 77.1421L93.478 77.1457L94.298 74.784ZM87.258 70.56L85.0298 69.4264L84.2281 71.0021L85.4466 72.283L87.258 70.56ZM89.114 66.912L90.8818 65.1442L88.4471 62.7096L86.8858 65.7784L89.114 66.912ZM95.578 70.88L94.688 73.2162L94.7043 73.2224L94.7207 73.2284L95.578 70.88ZM112.922 70.176L114.387 72.2016L114.401 72.1914L114.415 72.1811L112.922 70.176ZM114.266 60.128L112.498 61.8958L112.516 61.9131L112.533 61.9301L114.266 60.128ZM110.298 57.696L109.413 60.0342L109.441 60.0448L109.469 60.0546L110.298 57.696ZM103.706 55.776L103.092 58.1995L103.105 58.2026L103.117 58.2056L103.706 55.776ZM95.642 53.344L94.705 55.6618L94.7264 55.6704L94.7479 55.6786L95.642 53.344ZM90.458 49.696L88.5704 51.3352L88.5826 51.3492L88.5949 51.363L90.458 49.696ZM90.138 36.96L92.233 38.3242L92.2401 38.3132L92.2472 38.3022L90.138 36.96ZM95.642 32.48L96.6646 34.7613L96.6646 34.7613L95.642 32.48ZM112.346 31.904L111.631 34.2997L111.656 34.3071L111.681 34.314L112.346 31.904ZM118.746 34.784L121.048 35.7594L121.843 33.884L120.166 32.7268L118.746 34.784ZM117.146 38.56L115.77 40.6474L118.277 42.2994L119.448 39.5354L117.146 38.56ZM111.13 35.808L110.412 38.2026L110.434 38.2092L110.456 38.2154L111.13 35.808ZM95.962 37.152L97.4758 39.1416L97.4822 39.1367L95.962 37.152ZM94.618 47.328L92.8159 49.0608L92.8499 49.0961L92.8852 49.1301L94.618 47.328ZM98.714 49.824L97.8497 52.1699L97.8864 52.1834L97.9234 52.1957L98.714 49.824ZM105.37 51.68L105.969 49.2528L105.968 49.2525L105.37 51.68ZM113.306 54.112L112.369 56.4298L112.398 56.4417L112.428 56.4528L113.306 54.112ZM118.49 57.696L116.602 59.3352L116.613 59.3477L116.624 59.36L118.49 57.696ZM118.746 70.368L116.659 68.9922L116.651 69.0038L118.746 70.368ZM113.178 74.784L114.153 77.0859L114.17 77.0789L114.186 77.0717L113.178 74.784ZM103.898 73.884C100.843 73.884 97.9201 73.3953 95.118 72.4223L93.478 77.1457C96.8199 78.3061 100.297 78.884 103.898 78.884V73.884ZM95.1283 72.4259C92.3537 71.4489 90.3864 70.2215 89.0694 68.837L85.4466 72.283C87.4576 74.3972 90.1836 75.9857 93.4677 77.1421L95.1283 72.4259ZM89.4862 71.6936L91.3422 68.0456L86.8858 65.7784L85.0298 69.4264L89.4862 71.6936ZM87.3462 68.6798C89.2717 70.6052 91.7518 72.0977 94.688 73.2162L96.468 68.5438C94.0282 67.6143 92.199 66.4614 90.8818 65.1442L87.3462 68.6798ZM94.7207 73.2284C97.6831 74.3099 100.747 74.852 103.898 74.852V69.852C101.332 69.852 98.8489 69.4127 96.4353 68.5316L94.7207 73.2284ZM103.898 74.852C108.135 74.852 111.764 74.0991 114.387 72.2016L111.457 68.1504C110.069 69.1543 107.682 69.852 103.898 69.852V74.852ZM114.415 72.1811C117.006 70.252 118.43 67.611 118.43 64.416H113.43C113.43 65.9144 112.849 67.1133 111.429 68.1709L114.415 72.1811ZM118.43 64.416C118.43 62.0655 117.68 59.942 115.999 58.3259L112.533 61.9301C113.071 62.4473 113.43 63.1825 113.43 64.416H118.43ZM116.034 58.3602C114.675 57.001 113.02 56.0025 111.127 55.3373L109.469 60.0546C110.734 60.4989 111.724 61.1217 112.498 61.8958L116.034 58.3602ZM111.183 55.3578C109.463 54.7071 107.151 54.0388 104.295 53.3464L103.117 58.2056C105.893 58.8785 107.976 59.4902 109.413 60.0342L111.183 55.3578ZM104.32 53.3525C100.994 52.5104 98.4114 51.7276 96.5361 51.0094L94.7479 55.6786C96.8832 56.4964 99.677 57.3349 103.092 58.1995L104.32 53.3525ZM96.579 51.0262C94.9302 50.3597 93.5184 49.3672 92.3211 48.029L88.5949 51.363C90.2989 53.2675 92.3432 54.707 94.705 55.6618L96.579 51.0262ZM92.3456 48.0568C91.4363 47.0097 90.846 45.4547 90.846 43.104H85.846C85.846 46.3 86.6637 49.1397 88.5704 51.3352L92.3456 48.0568ZM90.846 43.104C90.846 41.3102 91.3117 39.7391 92.233 38.3242L88.043 35.5958C86.575 37.8503 85.846 40.3751 85.846 43.104H90.846ZM92.2472 38.3022C93.1268 36.9199 94.5377 35.7147 96.6646 34.7613L94.6194 30.1987C91.7969 31.464 89.5385 33.2454 88.0288 35.6178L92.2472 38.3022ZM96.6646 34.7613C98.7254 33.8375 101.424 33.316 104.858 33.316V28.316C100.954 28.316 97.508 28.9038 94.6194 30.1987L96.6646 34.7613ZM104.858 33.316C107.178 33.316 109.433 33.6441 111.631 34.2997L113.061 29.5083C110.395 28.7132 107.658 28.316 104.858 28.316V33.316ZM111.681 34.314C113.933 34.9352 115.801 35.7885 117.326 36.8412L120.166 32.7268C118.107 31.3048 115.708 30.2381 113.011 29.494L111.681 34.314ZM116.444 33.8086L114.844 37.5846L119.448 39.5354L121.048 35.7594L116.444 33.8086ZM118.522 36.4726C116.432 35.0951 114.19 34.0687 111.804 33.4006L110.456 38.2154C112.336 38.742 114.106 39.5502 115.77 40.6474L118.522 36.4726ZM111.848 33.4134C109.502 32.7096 107.17 32.348 104.858 32.348V37.348C106.642 37.348 108.491 37.6264 110.412 38.2026L111.848 33.4134ZM104.858 32.348C100.669 32.348 97.0662 33.1572 94.4418 35.1673L97.4822 39.1367C98.8685 38.0748 101.196 37.348 104.858 37.348V32.348ZM94.4482 35.1624C91.8876 37.1107 90.518 39.7769 90.518 42.976H95.518C95.518 41.3964 96.1111 40.1799 97.4758 39.1416L94.4482 35.1624ZM90.518 42.976C90.518 45.3 91.2282 47.4095 92.8159 49.0608L96.4201 45.5952C95.8745 45.0278 95.518 44.236 95.518 42.976H90.518ZM92.8852 49.1301C94.2723 50.4638 95.9443 51.4678 97.8497 52.1699L99.5783 47.4781C98.2411 46.9855 97.1824 46.3256 96.3508 45.5259L92.8852 49.1301ZM97.9234 52.1957C99.6778 52.7805 101.969 53.4174 104.772 54.1075L105.968 49.2525C103.224 48.5772 101.078 47.9768 99.5046 47.4523L97.9234 52.1957ZM104.771 54.1072C107.998 54.9034 110.517 55.681 112.369 56.4298L114.243 51.7942C112.084 50.9216 109.313 50.0779 105.969 49.2528L104.771 54.1072ZM112.428 56.4528C114.094 57.0775 115.473 58.0342 116.602 59.3352L120.378 56.0568C118.691 54.1151 116.614 52.6825 114.184 51.7712L112.428 56.4528ZM116.624 59.36C117.516 60.3601 118.102 61.8597 118.102 64.16H123.102C123.102 60.999 122.28 58.1892 120.356 56.032L116.624 59.36ZM118.102 64.16C118.102 65.9352 117.625 67.5257 116.659 68.9922L120.833 71.7438C122.342 69.4556 123.102 66.9074 123.102 64.16H118.102ZM116.651 69.0038C115.782 70.3387 114.357 71.5326 112.17 72.4963L114.186 77.0717C117.034 75.8167 119.321 74.0666 120.841 71.7322L116.651 69.0038ZM112.203 72.4821C110.08 73.3816 107.34 73.884 103.898 73.884V78.884C107.794 78.884 111.241 78.3198 114.153 77.0859L112.203 72.4821Z" fill="white"/>
</g>
<g filter="url(#filter7_d)">
<path d="M237.656 60.512V76H232.984V60.512L215.064 31.2H220.12L235.48 56.352L250.84 31.2H255.576L237.656 60.512Z" fill="white"/>
<path d="M237.656 60.512L235.523 59.208L235.156 59.8083V60.512H237.656ZM237.656 76V78.5H240.156V76H237.656ZM232.984 76H230.484V78.5H232.984V76ZM232.984 60.512H235.484V59.8083L235.117 59.208L232.984 60.512ZM215.064 31.2V28.7H210.605L212.931 32.504L215.064 31.2ZM220.12 31.2L222.254 29.897L221.523 28.7H220.12V31.2ZM235.48 56.352L233.346 57.655L235.48 61.1487L237.614 57.655L235.48 56.352ZM250.84 31.2V28.7H249.437L248.706 29.897L250.84 31.2ZM255.576 31.2L257.709 32.504L260.035 28.7H255.576V31.2ZM235.156 60.512V76H240.156V60.512H235.156ZM237.656 73.5H232.984V78.5H237.656V73.5ZM235.484 76V60.512H230.484V76H235.484ZM235.117 59.208L217.197 29.896L212.931 32.504L230.851 61.816L235.117 59.208ZM215.064 33.7H220.12V28.7H215.064V33.7ZM217.986 32.503L233.346 57.655L237.614 55.049L222.254 29.897L217.986 32.503ZM237.614 57.655L252.974 32.503L248.706 29.897L233.346 55.049L237.614 57.655ZM250.84 33.7H255.576V28.7H250.84V33.7ZM253.443 29.896L235.523 59.208L239.789 61.816L257.709 32.504L253.443 29.896Z" fill="white"/>
</g>
<defs>
<filter id="filter0_d" x="120.756" y="28.7" width="49.224" height="57.8" filterUnits="userSpaceOnUse" color-interpolation-filters="sRGB">
<feFlood flood-opacity="0" result="BackgroundImageFix"/>
<feColorMatrix in="SourceAlpha" type="matrix" values="0 0 0 0 0 0 0 0 0 0 0 0 0 0 0 0 0 0 127 0"/>
<feOffset dy="4"/>
<feGaussianBlur stdDeviation="2"/>
<feColorMatrix type="matrix" values="0 0 0 0 0 0 0 0 0 0 0 0 0 0 0 0 0 0 0.12 0"/>
<feBlend mode="normal" in2="BackgroundImageFix" result="effect1_dropShadow"/>
<feBlend mode="normal" in="SourceGraphic" in2="effect1_dropShadow" result="shape"/>
</filter>
<filter id="filter1_d" x="97.4537" y="0.822311" width="85.0642" height="84.0423" filterUnits="userSpaceOnUse" color-interpolation-filters="sRGB">
<feFlood flood-opacity="0" result="BackgroundImageFix"/>
<feColorMatrix in="SourceAlpha" type="matrix" values="0 0 0 0 0 0 0 0 0 0 0 0 0 0 0 0 0 0 127 0"/>
<feOffset dx="-8" dy="3"/>
<feGaussianBlur stdDeviation="12"/>
<feColorMatrix type="matrix" values="0 0 0 0 1 0 0 0 0 0.48 0 0 0 0 0 0 0 0 0.2 0"/>
<feBlend mode="normal" in2="BackgroundImageFix" result="effect1_dropShadow"/>
<feBlend mode="normal" in="SourceGraphic" in2="effect1_dropShadow" result="shape"/>
</filter>
<filter id="filter2_d" x="98.9673" y="45.1932" width="84.5053" height="84.5429" filterUnits="userSpaceOnUse" color-interpolation-filters="sRGB">
<feFlood flood-opacity="0" result="BackgroundImageFix"/>
<feColorMatrix in="SourceAlpha" type="matrix" values="0 0 0 0 0 0 0 0 0 0 0 0 0 0 0 0 0 0 127 0"/>
<feOffset dx="4" dy="19"/>
<feGaussianBlur stdDeviation="12"/>
<feColorMatrix type="matrix" values="0 0 0 0 1 0 0 0 0 0.48 0 0 0 0 0 0 0 0 0.2 0"/>
<feBlend mode="normal" in2="BackgroundImageFix" result="effect1_dropShadow"/>
<feBlend mode="normal" in="SourceGraphic" in2="effect1_dropShadow" result="shape"/>
</filter>
<filter id="filter3_d" x="163.756" y="28.7" width="49.224" height="57.8" filterUnits="userSpaceOnUse" color-interpolation-filters="sRGB">
<feFlood flood-opacity="0" result="BackgroundImageFix"/>
<feColorMatrix in="SourceAlpha" type="matrix" values="0 0 0 0 0 0 0 0 0 0 0 0 0 0 0 0 0 0 127 0"/>
<feOffset dy="4"/>
<feGaussianBlur stdDeviation="2"/>
<feColorMatrix type="matrix" values="0 0 0 0 0 0 0 0 0 0 0 0 0 0 0 0 0 0 0.12 0"/>
<feBlend mode="normal" in2="BackgroundImageFix" result="effect1_dropShadow"/>
<feBlend mode="normal" in="SourceGraphic" in2="effect1_dropShadow" result="shape"/>
</filter>
<filter id="filter4_d" x="140.454" y="0.822311" width="85.0642" height="84.0423" filterUnits="userSpaceOnUse" color-interpolation-filters="sRGB">
<feFlood flood-opacity="0" result="BackgroundImageFix"/>
<feColorMatrix in="SourceAlpha" type="matrix" values="0 0 0 0 0 0 0 0 0 0 0 0 0 0 0 0 0 0 127 0"/>
<feOffset dx="-8" dy="3"/>
<feGaussianBlur stdDeviation="12"/>
<feColorMatrix type="matrix" values="0 0 0 0 1 0 0 0 0 0.48 0 0 0 0 0 0 0 0 0.2 0"/>
<feBlend mode="normal" in2="BackgroundImageFix" result="effect1_dropShadow"/>
<feBlend mode="normal" in="SourceGraphic" in2="effect1_dropShadow" result="shape"/>
</filter>
<filter id="filter5_d" x="141.967" y="45.1932" width="84.5053" height="84.5429" filterUnits="userSpaceOnUse" color-interpolation-filters="sRGB">
<feFlood flood-opacity="0" result="BackgroundImageFix"/>
<feColorMatrix in="SourceAlpha" type="matrix" values="0 0 0 0 0 0 0 0 0 0 0 0 0 0 0 0 0 0 127 0"/>
<feOffset dx="4" dy="19"/>
<feGaussianBlur stdDeviation="12"/>
<feColorMatrix type="matrix" values="0 0 0 0 1 0 0 0 0 0.48 0 0 0 0 0 0 0 0 0.2 0"/>
<feBlend mode="normal" in2="BackgroundImageFix" result="effect1_dropShadow"/>
<feBlend mode="normal" in="SourceGraphic" in2="effect1_dropShadow" result="shape"/>
</filter>
<filter id="filter6_d" x="0.795998" y="28.316" width="126.306" height="58.568" filterUnits="userSpaceOnUse" color-interpolation-filters="sRGB">
<feFlood flood-opacity="0" result="BackgroundImageFix"/>
<feColorMatrix in="SourceAlpha" type="matrix" values="0 0 0 0 0 0 0 0 0 0 0 0 0 0 0 0 0 0 127 0"/>
<feOffset dy="4"/>
<feGaussianBlur stdDeviation="2"/>
<feColorMatrix type="matrix" values="0 0 0 0 0 0 0 0 0 0 0 0 0 0 0 0 0 0 0.25 0"/>
<feBlend mode="normal" in2="BackgroundImageFix" result="effect1_dropShadow"/>
<feBlend mode="normal" in="SourceGraphic" in2="effect1_dropShadow" result="shape"/>
</filter>
<filter id="filter7_d" x="206.605" y="28.7" width="57.4291" height="57.8" filterUnits="userSpaceOnUse" color-interpolation-filters="sRGB">
<feFlood flood-opacity="0" result="BackgroundImageFix"/>
<feColorMatrix in="SourceAlpha" type="matrix" values="0 0 0 0 0 0 0 0 0 0 0 0 0 0 0 0 0 0 127 0"/>
<feOffset dy="4"/>
<feGaussianBlur stdDeviation="2"/>
<feColorMatrix type="matrix" values="0 0 0 0 0 0 0 0 0 0 0 0 0 0 0 0 0 0 0.25 0"/>
<feBlend mode="normal" in2="BackgroundImageFix" result="effect1_dropShadow"/>
<feBlend mode="normal" in="SourceGraphic" in2="effect1_dropShadow" result="shape"/>
</filter>
</defs>
</svg>
